<svg width="316" height="187" viewBox="0 0 316 187" fill="none" xmlns="http://www.w3.org/2000/svg">
<path d="M31.0459 10.5493L50.874 9.31588L21.0001 183L5.73552e-07 183L31.0459 10.5493Z" fill="white"/>
<path d="M52.5001 4.49996L73.5 4.5L39.5012 183.02L21.6123 183.02L52.5001 4.49996Z" fill="white"/>
<path d="M73 95.0001L76.4999 95L69.1445 137.677L61.9999 183L58 183L73 95.0001Z" fill="white"/>
<path d="M21 4.5H66.9893V8.00005H20L21 4.5Z" fill="white"/>
<path d="M13.12 9H51L50 12.9706H12L13.12 9Z" fill="white"/>
<path d="M69.4595 6.60606L73.0261 4.58374L103.083 171.795L99.5 176L69.4595 6.60606Z" fill="white"/>
<path d="M74.2504 94.5081L78.1897 95.2026L94.988 183.955L89.5 183.955L74.2504 94.5081Z" fill="white"/>
<path d="M91.5 177.5H315L316 184H93.2727L91.5 177.5Z" fill="white"/>
<path d="M90 171H309.146L310 177H91.2816L90 171Z" fill="white"/>
<path d="M179 105H184V138V171H179V105Z" fill="white"/>
<path d="M179 105H184V138V171H179V105Z" fill="white"/>
<path d="M179 105H184V138V171H179V105Z" fill="white"/>
<path d="M227 105H232V138V171H227V105Z" fill="white"/>
<path d="M227 105H232V138V171H227V105Z" fill="white"/>
<path d="M227 105H232V138V171H227V105Z" fill="white"/>
<path d="M242 105H252V138V171H242V105Z" fill="white"/>
<path d="M242 105H252V138V171H242V105Z" fill="white"/>
<path d="M242 105H252V138V171H242V105Z" fill="white"/>
<path d="M179 105H189V138V171H179V105Z" fill="white"/>
<path d="M179 105H189V138V171H179V105Z" fill="white"/>
<path d="M179 105H189V138V171H179V105Z" fill="white"/>
<path d="M222 105H232V138V171H222V105Z" fill="white"/>
<path d="M222 105H232V138V171H222V105Z" fill="white"/>
<path d="M222 105H232V138V171H222V105Z" fill="white"/>
<path d="M116 105H121V119V133H116V105Z" fill="white"/>
<path d="M116 105H121V119V133H116V105Z" fill="white"/>
<path d="M116 105H121V119V133H116V105Z" fill="white"/>
<path d="M285 105H295V119V133H285V105Z" fill="white"/>
<path d="M285 105H295V119V133H285V105Z" fill="white"/>
<path d="M285 105H295V119V133H285V105Z" fill="white"/>
<path d="M116 105H126V119V133H116V105Z" fill="white"/>
<path d="M116 105H126V119V133H116V105Z" fill="white"/>
<path d="M116 105H126V119V133H116V105Z" fill="white"/>
<path d="M179 105H189V119V133H179V105Z" fill="white"/>
<path d="M179 105H189V119V133H179V105Z" fill="white"/>
<path d="M179 105H189V119V133H179V105Z" fill="white"/>
<path d="M222 105H232V119V133H222V105Z" fill="white"/>
<path d="M222 105H232V119V133H222V105Z" fill="white"/>
<path d="M222 105H232V119V133H222V105Z" fill="white"/>
<path d="M159 134H169V148V162H159V134Z" fill="white"/>
<path d="M159 134H169V148V162H159V134Z" fill="white"/>
<path d="M159 134H169V148V162H159V134Z" fill="white"/>
<path d="M164 138H169V152V166H164V138Z" fill="white"/>
<path d="M164 138H169V152V166H164V138Z" fill="white"/>
<path d="M164 138H169V152V166H164V138Z" fill="white"/>
<rect x="116" y="166" width="53" height="5" fill="white"/>
<rect x="116" y="133" width="53" height="5" fill="white"/>
<rect x="179" y="100" width="53" height="5" fill="white"/>
<rect x="179" y="133" width="53" height="5" fill="white"/>
<rect x="242" y="95" width="53" height="10" fill="white"/>
<rect x="116" y="95" width="53" height="10" fill="white"/>
<rect x="179" y="95" width="53" height="10" fill="white"/>
<rect x="179" y="128" width="53" height="10" fill="white"/>
<rect x="116" y="128" width="53" height="10" fill="white"/>
<rect x="116" y="161" width="53" height="10" fill="white"/>
<rect x="242" y="133" width="53" height="10" fill="white"/>
<path d="M72.9863 94.1112H78.4863V98.1112H72.9863V94.1112Z" fill="white"/>
</svg>
