<svg width="1092" height="349" viewBox="0 0 1092 349" fill="none" xmlns="http://www.w3.org/2000/svg">
<path d="M30.2432 103.843L49.5588 102.839L20.457 244.135L-0.000272856 244.135L30.2432 103.843Z" fill="white"/>
<path d="M51.1429 98.9215L71.6001 98.9215L38.48 244.151L21.0535 244.151L51.1429 98.9215Z" fill="white"/>
<path d="M71.1131 172.545L74.5225 172.545L67.3572 207.264L60.3973 244.135L56.5008 244.135L71.1131 172.545Z" fill="white"/>
<path d="M20.4571 98.9215H65.2577V101.769H19.4829L20.4571 98.9215Z" fill="white"/>
<path d="M12.781 102.582H49.6819L48.7078 105.813H11.6899L12.781 102.582Z" fill="white"/>
<path d="M67.6643 100.635L71.1387 98.9896L100.419 235.02L96.9283 238.44L67.6643 100.635Z" fill="white"/>
<path d="M72.3311 172.145L76.1685 172.71L92.5327 244.912L87.1865 244.912L72.3311 172.145Z" fill="white"/>
<path d="M89.1348 239.66H306.858L307.832 244.948H90.8617L89.1348 239.66Z" fill="white"/>
<path d="M87.6738 234.373H301.155L301.988 239.254H88.9223L87.6738 234.373Z" fill="white"/>
<path d="M174.374 180.68H179.244V207.526V234.373H174.374V180.68Z" fill="white"/>
<path d="M174.374 180.68H179.244V207.526V234.373H174.374V180.68Z" fill="white"/>
<path d="M174.374 180.68H179.244V207.526V234.373H174.374V180.68Z" fill="white"/>
<path d="M221.133 180.68H226.004V207.526V234.373H221.133V180.68Z" fill="white"/>
<path d="M221.133 180.68H226.004V207.526V234.373H221.133V180.68Z" fill="white"/>
<path d="M221.133 180.68H226.004V207.526V234.373H221.133V180.68Z" fill="white"/>
<path d="M235.745 180.68H245.487V207.526V234.373H235.745V180.68Z" fill="white"/>
<path d="M235.745 180.68H245.487V207.526V234.373H235.745V180.68Z" fill="white"/>
<path d="M235.745 180.68H245.487V207.526V234.373H235.745V180.68Z" fill="white"/>
<path d="M174.374 180.68H184.115V207.526V234.373H174.374V180.68Z" fill="white"/>
<path d="M174.374 180.68H184.115V207.526V234.373H174.374V180.68Z" fill="white"/>
<path d="M174.374 180.68H184.115V207.526V234.373H174.374V180.68Z" fill="white"/>
<path d="M216.262 180.68H226.003V207.526V234.373H216.262V180.68Z" fill="white"/>
<path d="M216.262 180.68H226.003V207.526V234.373H216.262V180.68Z" fill="white"/>
<path d="M216.262 180.68H226.003V207.526V234.373H216.262V180.68Z" fill="white"/>
<path d="M113.002 180.68H117.873V192.07V203.459H113.002V180.68Z" fill="white"/>
<path d="M113.002 180.68H117.873V192.07V203.459H113.002V180.68Z" fill="white"/>
<path d="M113.002 180.68H117.873V192.07V203.459H113.002V180.68Z" fill="white"/>
<path d="M277.634 180.68H287.375V192.07V203.459H277.634V180.68Z" fill="white"/>
<path d="M277.634 180.68H287.375V192.07V203.459H277.634V180.68Z" fill="white"/>
<path d="M277.634 180.68H287.375V192.07V203.459H277.634V180.68Z" fill="white"/>
<path d="M113.002 180.68H122.743V192.07V203.459H113.002V180.68Z" fill="white"/>
<path d="M113.002 180.68H122.743V192.07V203.459H113.002V180.68Z" fill="white"/>
<path d="M113.002 180.68H122.743V192.07V203.459H113.002V180.68Z" fill="white"/>
<path d="M174.374 180.68H184.115V192.07V203.459H174.374V180.68Z" fill="white"/>
<path d="M174.374 180.68H184.115V192.07V203.459H174.374V180.68Z" fill="white"/>
<path d="M174.374 180.68H184.115V192.07V203.459H174.374V180.68Z" fill="white"/>
<path d="M216.262 180.68H226.003V192.07V203.459H216.262V180.68Z" fill="white"/>
<path d="M216.262 180.68H226.003V192.07V203.459H216.262V180.68Z" fill="white"/>
<path d="M216.262 180.68H226.003V192.07V203.459H216.262V180.68Z" fill="white"/>
<path d="M154.89 204.272H164.632V215.662V227.051H154.89V204.272Z" fill="white"/>
<path d="M154.89 204.272H164.632V215.662V227.051H154.89V204.272Z" fill="white"/>
<path d="M154.89 204.272H164.632V215.662V227.051H154.89V204.272Z" fill="white"/>
<path d="M159.761 207.526H164.632V218.916V230.305H159.761V207.526Z" fill="white"/>
<path d="M159.761 207.526H164.632V218.916V230.305H159.761V207.526Z" fill="white"/>
<path d="M159.761 207.526H164.632V218.916V230.305H159.761V207.526Z" fill="white"/>
<rect x="113.002" y="230.305" width="51.6301" height="4.0676" fill="white"/>
<rect x="113.002" y="203.459" width="51.6301" height="4.0676" fill="white"/>
<rect x="174.374" y="176.613" width="51.6301" height="4.0676" fill="white"/>
<rect x="174.374" y="203.459" width="51.6301" height="4.0676" fill="white"/>
<rect x="235.745" y="172.545" width="51.6301" height="8.1352" fill="white"/>
<rect x="113.002" y="172.545" width="51.6301" height="8.1352" fill="white"/>
<rect x="174.374" y="172.545" width="51.6301" height="8.1352" fill="white"/>
<rect x="174.374" y="199.391" width="51.6301" height="8.1352" fill="white"/>
<rect x="113.002" y="199.391" width="51.6301" height="8.1352" fill="white"/>
<rect x="113.002" y="226.237" width="51.6301" height="8.1352" fill="white"/>
<rect x="235.745" y="203.459" width="51.6301" height="8.1352" fill="white"/>
<path d="M71.0996 171.822H76.4575V175.076H71.0996V171.822Z" fill="white"/>
<g filter="url(#filter0_d_251_2132)">
<mask id="path-34-outside-1_251_2132" maskUnits="userSpaceOnUse" x="350" y="57" width="681" height="194" fill="black">
<rect fill="white" x="350" y="57" width="681" height="194"/>
<path d="M394.273 247H352.091L416.364 60.8182H467.091L531.273 247H489.091L442.455 103.364H441L394.273 247ZM391.636 173.818H491.273V204.545H391.636V173.818ZM645.312 114.364C644.585 107.03 641.463 101.333 635.948 97.2727C630.433 93.2121 622.948 91.1818 613.494 91.1818C607.069 91.1818 601.645 92.0909 597.221 93.9091C592.797 95.6667 589.403 98.1212 587.039 101.273C584.736 104.424 583.585 108 583.585 112C583.463 115.333 584.16 118.242 585.675 120.727C587.251 123.212 589.403 125.364 592.13 127.182C594.857 128.939 598.009 130.485 601.585 131.818C605.16 133.091 608.978 134.182 613.039 135.091L629.766 139.091C637.888 140.909 645.342 143.333 652.13 146.364C658.918 149.394 664.797 153.121 669.766 157.545C674.736 161.97 678.585 167.182 681.312 173.182C684.1 179.182 685.524 186.061 685.585 193.818C685.524 205.212 682.615 215.091 676.857 223.455C671.16 231.758 662.918 238.212 652.13 242.818C641.403 247.364 628.463 249.636 613.312 249.636C598.282 249.636 585.191 247.333 574.039 242.727C562.948 238.121 554.282 231.303 548.039 222.273C541.857 213.182 538.615 201.939 538.312 188.545H576.403C576.827 194.788 578.615 200 581.766 204.182C584.978 208.303 589.251 211.424 594.585 213.545C599.978 215.606 606.069 216.636 612.857 216.636C619.524 216.636 625.312 215.667 630.221 213.727C635.191 211.788 639.039 209.091 641.766 205.636C644.494 202.182 645.857 198.212 645.857 193.727C645.857 189.545 644.615 186.03 642.13 183.182C639.706 180.333 636.13 177.909 631.403 175.909C626.736 173.909 621.009 172.091 614.221 170.455L593.948 165.364C578.251 161.545 565.857 155.576 556.766 147.455C547.675 139.333 543.16 128.394 543.221 114.636C543.16 103.364 546.16 93.5151 552.221 85.0909C558.342 76.6667 566.736 70.0909 577.403 65.3636C588.069 60.6364 600.191 58.2727 613.766 58.2727C627.585 58.2727 639.645 60.6364 649.948 65.3636C660.312 70.0909 668.372 76.6667 674.13 85.0909C679.888 93.5151 682.857 103.273 683.039 114.364H645.312ZM734.783 247H692.601L756.874 60.8182H807.601L871.783 247H829.601L782.965 103.364H781.51L734.783 247ZM732.146 173.818H831.783V204.545H732.146V173.818ZM889.072 247V60.8182H962.526C976.648 60.8182 988.678 63.5151 998.617 68.9091C1008.56 74.2424 1016.13 81.6667 1021.34 91.1818C1026.62 100.636 1029.25 111.545 1029.25 123.909C1029.25 136.273 1026.59 147.182 1021.25 156.636C1015.92 166.091 1008.19 173.455 998.072 178.727C988.011 184 975.829 186.636 961.526 186.636H914.708V155.091H955.163C962.739 155.091 968.981 153.788 973.89 151.182C978.86 148.515 982.557 144.848 984.981 140.182C987.466 135.455 988.708 130.03 988.708 123.909C988.708 117.727 987.466 112.333 984.981 107.727C982.557 103.061 978.86 99.4545 973.89 96.9091C968.92 94.303 962.617 93 954.981 93H928.435V247H889.072Z"/>
</mask>
<path d="M394.273 247H352.091L416.364 60.8182H467.091L531.273 247H489.091L442.455 103.364H441L394.273 247ZM391.636 173.818H491.273V204.545H391.636V173.818ZM645.312 114.364C644.585 107.03 641.463 101.333 635.948 97.2727C630.433 93.2121 622.948 91.1818 613.494 91.1818C607.069 91.1818 601.645 92.0909 597.221 93.9091C592.797 95.6667 589.403 98.1212 587.039 101.273C584.736 104.424 583.585 108 583.585 112C583.463 115.333 584.16 118.242 585.675 120.727C587.251 123.212 589.403 125.364 592.13 127.182C594.857 128.939 598.009 130.485 601.585 131.818C605.16 133.091 608.978 134.182 613.039 135.091L629.766 139.091C637.888 140.909 645.342 143.333 652.13 146.364C658.918 149.394 664.797 153.121 669.766 157.545C674.736 161.97 678.585 167.182 681.312 173.182C684.1 179.182 685.524 186.061 685.585 193.818C685.524 205.212 682.615 215.091 676.857 223.455C671.16 231.758 662.918 238.212 652.13 242.818C641.403 247.364 628.463 249.636 613.312 249.636C598.282 249.636 585.191 247.333 574.039 242.727C562.948 238.121 554.282 231.303 548.039 222.273C541.857 213.182 538.615 201.939 538.312 188.545H576.403C576.827 194.788 578.615 200 581.766 204.182C584.978 208.303 589.251 211.424 594.585 213.545C599.978 215.606 606.069 216.636 612.857 216.636C619.524 216.636 625.312 215.667 630.221 213.727C635.191 211.788 639.039 209.091 641.766 205.636C644.494 202.182 645.857 198.212 645.857 193.727C645.857 189.545 644.615 186.03 642.13 183.182C639.706 180.333 636.13 177.909 631.403 175.909C626.736 173.909 621.009 172.091 614.221 170.455L593.948 165.364C578.251 161.545 565.857 155.576 556.766 147.455C547.675 139.333 543.16 128.394 543.221 114.636C543.16 103.364 546.16 93.5151 552.221 85.0909C558.342 76.6667 566.736 70.0909 577.403 65.3636C588.069 60.6364 600.191 58.2727 613.766 58.2727C627.585 58.2727 639.645 60.6364 649.948 65.3636C660.312 70.0909 668.372 76.6667 674.13 85.0909C679.888 93.5151 682.857 103.273 683.039 114.364H645.312ZM734.783 247H692.601L756.874 60.8182H807.601L871.783 247H829.601L782.965 103.364H781.51L734.783 247ZM732.146 173.818H831.783V204.545H732.146V173.818ZM889.072 247V60.8182H962.526C976.648 60.8182 988.678 63.5151 998.617 68.9091C1008.56 74.2424 1016.13 81.6667 1021.34 91.1818C1026.62 100.636 1029.25 111.545 1029.25 123.909C1029.25 136.273 1026.59 147.182 1021.25 156.636C1015.92 166.091 1008.19 173.455 998.072 178.727C988.011 184 975.829 186.636 961.526 186.636H914.708V155.091H955.163C962.739 155.091 968.981 153.788 973.89 151.182C978.86 148.515 982.557 144.848 984.981 140.182C987.466 135.455 988.708 130.03 988.708 123.909C988.708 117.727 987.466 112.333 984.981 107.727C982.557 103.061 978.86 99.4545 973.89 96.9091C968.92 94.303 962.617 93 954.981 93H928.435V247H889.072Z" fill="white"/>
<path d="M394.273 247V248H394.999L395.224 247.309L394.273 247ZM352.091 247L351.146 246.674L350.688 248H352.091V247ZM416.364 60.8182V59.8182H415.651L415.418 60.4919L416.364 60.8182ZM467.091 60.8182L468.036 60.4923L467.804 59.8182H467.091V60.8182ZM531.273 247V248H532.675L532.218 246.674L531.273 247ZM489.091 247L488.14 247.309L488.364 248H489.091V247ZM442.455 103.364L443.406 103.055L443.181 102.364H442.455V103.364ZM441 103.364V102.364H440.274L440.049 103.054L441 103.364ZM391.636 173.818V172.818H390.636V173.818H391.636ZM491.273 173.818H492.273V172.818H491.273V173.818ZM491.273 204.545V205.545H492.273V204.545H491.273ZM391.636 204.545H390.636V205.545H391.636V204.545ZM394.273 246H352.091V248H394.273V246ZM353.036 247.326L417.309 61.1445L415.418 60.4919L351.146 246.674L353.036 247.326ZM416.364 61.8182H467.091V59.8182H416.364V61.8182ZM466.146 61.1441L530.327 247.326L532.218 246.674L468.036 60.4923L466.146 61.1441ZM531.273 246H489.091V248H531.273V246ZM490.042 246.691L443.406 103.055L441.503 103.672L488.14 247.309L490.042 246.691ZM442.455 102.364H441V104.364H442.455V102.364ZM440.049 103.054L393.322 246.691L395.224 247.309L441.951 103.673L440.049 103.054ZM391.636 174.818H491.273V172.818H391.636V174.818ZM490.273 173.818V204.545H492.273V173.818H490.273ZM491.273 203.545H391.636V205.545H491.273V203.545ZM392.636 204.545V173.818H390.636V204.545H392.636ZM645.312 114.364L644.317 114.462L644.406 115.364H645.312V114.364ZM597.221 93.9091L597.59 94.8385L597.601 94.834L597.221 93.9091ZM587.039 101.273L586.239 100.673L586.232 100.683L587.039 101.273ZM583.585 112L584.584 112.036L584.585 112.018V112H583.585ZM585.675 120.727L584.822 121.248L584.826 121.255L584.831 121.263L585.675 120.727ZM592.13 127.182L591.575 128.014L591.582 128.018L591.588 128.022L592.13 127.182ZM601.585 131.818L601.235 132.755L601.242 132.758L601.249 132.76L601.585 131.818ZM613.039 135.091L613.272 134.118L613.265 134.117L613.258 134.115L613.039 135.091ZM629.766 139.091L629.534 140.063L629.541 140.065L629.548 140.067L629.766 139.091ZM652.13 146.364L651.722 147.277L651.722 147.277L652.13 146.364ZM669.766 157.545L670.431 156.799L670.431 156.799L669.766 157.545ZM681.312 173.182L680.401 173.596L680.405 173.603L681.312 173.182ZM685.585 193.818L686.585 193.823L686.585 193.81L685.585 193.818ZM676.857 223.455L676.034 222.888L676.033 222.889L676.857 223.455ZM652.13 242.818L652.52 243.739L652.523 243.738L652.13 242.818ZM574.039 242.727L573.656 243.651L573.657 243.652L574.039 242.727ZM548.039 222.273L547.212 222.835L547.217 222.841L548.039 222.273ZM538.312 188.545V187.545H537.289L537.312 188.568L538.312 188.545ZM576.403 188.545L577.4 188.478L577.337 187.545H576.403V188.545ZM581.766 204.182L580.968 204.784L580.973 204.79L580.978 204.797L581.766 204.182ZM594.585 213.545L594.215 214.475L594.228 214.48L594.585 213.545ZM630.221 213.727L629.857 212.796L629.853 212.797L630.221 213.727ZM641.766 205.636L642.551 206.256L642.551 206.256L641.766 205.636ZM642.13 183.182L641.368 183.83L641.376 183.839L642.13 183.182ZM631.403 175.909L631.009 176.828L631.013 176.83L631.403 175.909ZM614.221 170.455L613.977 171.424L613.987 171.427L614.221 170.455ZM593.948 165.364L594.192 164.394L594.185 164.392L593.948 165.364ZM556.766 147.455L556.1 148.2L556.1 148.2L556.766 147.455ZM543.221 114.636L544.221 114.641L544.221 114.631L543.221 114.636ZM552.221 85.0909L551.412 84.5031L551.409 84.5069L552.221 85.0909ZM649.948 65.3636L649.531 66.2725L649.533 66.2735L649.948 65.3636ZM674.13 85.0909L673.304 85.6552L673.304 85.6552L674.13 85.0909ZM683.039 114.364V115.364H684.056L684.039 114.347L683.039 114.364ZM646.307 114.265C645.554 106.674 642.303 100.71 636.541 96.4674L635.355 98.078C640.624 101.957 643.615 107.387 644.317 114.462L646.307 114.265ZM636.541 96.4674C630.8 92.2402 623.082 90.1818 613.494 90.1818V92.1818C622.814 92.1818 630.066 94.184 635.355 98.078L636.541 96.4674ZM613.494 90.1818C606.981 90.1818 601.419 91.1026 596.841 92.9841L597.601 94.834C601.871 93.0792 607.158 92.1818 613.494 92.1818V90.1818ZM596.852 92.9797C592.292 94.7911 588.734 97.3458 586.239 100.673L587.839 101.873C590.071 98.8966 593.301 96.5422 597.59 94.8384L596.852 92.9797ZM586.232 100.683C583.8 104.01 582.585 107.794 582.585 112H584.585C584.585 108.206 585.672 104.838 587.846 101.863L586.232 100.683ZM582.585 111.964C582.458 115.463 583.19 118.572 584.822 121.248L586.529 120.207C585.13 117.913 584.469 115.203 584.584 112.036L582.585 111.964ZM584.831 121.263C586.49 123.878 588.745 126.127 591.575 128.014L592.685 126.35C590.06 124.6 588.013 122.546 586.52 120.192L584.831 121.263ZM591.588 128.022C594.386 129.825 597.603 131.401 601.235 132.755L601.934 130.881C598.414 129.569 595.329 128.054 592.672 126.341L591.588 128.022ZM601.249 132.76C604.867 134.048 608.724 135.15 612.821 136.067L613.258 134.115C609.233 133.214 605.454 132.134 601.92 130.876L601.249 132.76ZM612.807 136.063L629.534 140.063L629.999 138.118L613.272 134.118L612.807 136.063ZM629.548 140.067C637.612 141.872 645.002 144.277 651.722 147.277L652.538 145.45C645.682 142.39 638.163 139.946 629.985 138.115L629.548 140.067ZM651.722 147.277C658.427 150.27 664.217 153.944 669.101 158.292L670.431 156.799C665.376 152.299 659.408 148.518 652.538 145.45L651.722 147.277ZM669.101 158.292C673.968 162.625 677.732 167.724 680.401 173.596L682.222 172.768C679.437 166.64 675.504 161.315 670.431 156.799L669.101 158.292ZM680.405 173.603C683.123 179.453 684.525 186.187 684.585 193.826L686.585 193.81C686.523 185.934 685.076 178.911 682.219 172.76L680.405 173.603ZM684.585 193.813C684.525 205.032 681.664 214.709 676.034 222.888L677.681 224.022C683.566 215.473 686.523 205.393 686.585 193.823L684.585 193.813ZM676.033 222.889C670.46 231.011 662.38 237.354 651.737 241.899L652.523 243.738C663.456 239.07 671.861 232.504 677.682 224.02L676.033 222.889ZM651.74 241.897C641.167 246.377 628.368 248.636 613.312 248.636V250.636C628.559 250.636 641.638 248.35 652.52 243.739L651.74 241.897ZM613.312 248.636C598.381 248.636 585.426 246.348 574.421 241.803L573.657 243.652C584.956 248.318 598.182 250.636 613.312 250.636V248.636ZM574.423 241.804C563.492 237.264 554.985 230.562 548.862 221.704L547.217 222.841C553.578 232.044 562.405 238.978 573.656 243.651L574.423 241.804ZM548.866 221.71C542.814 212.811 539.611 201.766 539.312 188.523L537.312 188.568C537.619 202.112 540.9 213.553 547.212 222.835L548.866 221.71ZM538.312 189.545H576.403V187.545H538.312V189.545ZM575.405 188.613C575.84 195.011 577.678 200.419 580.968 204.784L582.565 203.58C579.551 199.581 577.814 194.565 577.4 188.478L575.405 188.613ZM580.978 204.797C584.31 209.072 588.733 212.294 594.215 214.475L594.954 212.616C589.769 210.554 585.647 207.535 582.555 203.567L580.978 204.797ZM594.228 214.48C599.754 216.591 605.968 217.636 612.857 217.636V215.636C606.17 215.636 600.203 214.621 594.941 212.611L594.228 214.48ZM612.857 217.636C619.618 217.636 625.536 216.653 630.588 214.657L629.853 212.797C625.088 214.68 619.43 215.636 612.857 215.636V217.636ZM630.584 214.659C635.685 212.668 639.693 209.877 642.551 206.256L640.981 205.017C638.386 208.305 634.696 210.907 629.857 212.796L630.584 214.659ZM642.551 206.256C645.421 202.621 646.857 198.432 646.857 193.727H644.857C644.857 197.992 643.567 201.742 640.981 205.017L642.551 206.256ZM646.857 193.727C646.857 189.331 645.545 185.575 642.884 182.524L641.376 183.839C643.685 186.486 644.857 189.76 644.857 193.727H646.857ZM642.892 182.534C640.336 179.531 636.613 177.027 631.792 174.988L631.013 176.83C635.647 178.791 639.076 181.136 641.368 183.83L642.892 182.534ZM631.797 174.99C627.063 172.961 621.279 171.127 614.455 169.482L613.987 171.427C620.739 173.054 626.409 174.857 631.009 176.828L631.797 174.99ZM614.464 169.485L594.192 164.394L593.705 166.334L613.977 171.424L614.464 169.485ZM594.185 164.392C578.597 160.6 566.368 154.691 557.433 146.709L556.1 148.2C565.347 156.461 577.905 162.49 593.712 166.335L594.185 164.392ZM557.433 146.709C548.584 138.804 544.161 128.153 544.221 114.641L542.221 114.632C542.159 128.635 546.767 139.863 556.1 148.2L557.433 146.709ZM544.221 114.631C544.161 103.55 547.106 93.9125 553.033 85.6749L551.409 84.5069C545.214 93.1178 542.159 103.177 542.221 114.642L544.221 114.631ZM553.03 85.6787C559.036 77.4135 567.282 70.9426 577.808 66.2779L576.998 64.4494C566.19 69.2392 557.649 75.9198 551.412 84.5031L553.03 85.6787ZM577.808 66.2779C588.328 61.6156 600.308 59.2727 613.766 59.2727V57.2727C600.074 57.2727 587.811 59.6571 576.998 64.4494L577.808 66.2779ZM613.766 59.2727C627.471 59.2727 639.384 61.6169 649.531 66.2725L650.365 64.4547C639.906 59.6558 627.698 57.2727 613.766 57.2727V59.2727ZM649.533 66.2735C659.751 70.9341 667.661 77.3984 673.304 85.6552L674.956 84.5267C669.084 75.9349 660.873 69.2477 650.363 64.4538L649.533 66.2735ZM673.304 85.6552C678.942 93.9037 681.86 103.467 682.039 114.38L684.039 114.347C683.854 103.078 680.833 93.1266 674.956 84.5267L673.304 85.6552ZM683.039 113.364H645.312V115.364H683.039V113.364ZM734.783 247V248H735.509L735.734 247.309L734.783 247ZM692.601 247L691.656 246.674L691.198 248H692.601V247ZM756.874 60.8182V59.8182H756.161L755.928 60.4919L756.874 60.8182ZM807.601 60.8182L808.546 60.4923L808.314 59.8182H807.601V60.8182ZM871.783 247V248H873.185L872.728 246.674L871.783 247ZM829.601 247L828.65 247.309L828.874 248H829.601V247ZM782.965 103.364L783.916 103.055L783.691 102.364H782.965V103.364ZM781.51 103.364V102.364H780.784L780.559 103.054L781.51 103.364ZM732.146 173.818V172.818H731.146V173.818H732.146ZM831.783 173.818H832.783V172.818H831.783V173.818ZM831.783 204.545V205.545H832.783V204.545H831.783ZM732.146 204.545H731.146V205.545H732.146V204.545ZM734.783 246H692.601V248H734.783V246ZM693.546 247.326L757.819 61.1445L755.928 60.4919L691.656 246.674L693.546 247.326ZM756.874 61.8182H807.601V59.8182H756.874V61.8182ZM806.656 61.1441L870.837 247.326L872.728 246.674L808.546 60.4923L806.656 61.1441ZM871.783 246H829.601V248H871.783V246ZM830.552 246.691L783.916 103.055L782.013 103.672L828.65 247.309L830.552 246.691ZM782.965 102.364H781.51V104.364H782.965V102.364ZM780.559 103.054L733.832 246.691L735.734 247.309L782.461 103.673L780.559 103.054ZM732.146 174.818H831.783V172.818H732.146V174.818ZM830.783 173.818V204.545H832.783V173.818H830.783ZM831.783 203.545H732.146V205.545H831.783V203.545ZM733.146 204.545V173.818H731.146V204.545H733.146ZM889.072 247H888.072V248H889.072V247ZM889.072 60.8182V59.8182H888.072V60.8182H889.072ZM998.617 68.9091L998.14 69.788L998.144 69.7902L998.617 68.9091ZM1021.34 91.1818L1020.47 91.6622L1020.47 91.6689L1021.34 91.1818ZM998.072 178.727L997.61 177.84L997.608 177.842L998.072 178.727ZM914.708 186.636H913.708V187.636H914.708V186.636ZM914.708 155.091V154.091H913.708V155.091H914.708ZM973.89 151.182L974.359 152.065L974.363 152.063L973.89 151.182ZM984.981 140.182L984.096 139.717L984.094 139.721L984.981 140.182ZM984.981 107.727L984.094 108.188L984.097 108.195L984.101 108.202L984.981 107.727ZM973.89 96.9091L973.426 97.7947L973.434 97.7991L973.89 96.9091ZM928.435 93V92H927.435V93H928.435ZM928.435 247V248H929.435V247H928.435ZM890.072 247V60.8182H888.072V247H890.072ZM889.072 61.8182H962.526V59.8182H889.072V61.8182ZM962.526 61.8182C976.522 61.8182 988.379 64.4909 998.14 69.788L999.094 68.0302C988.976 62.5394 976.773 59.8182 962.526 59.8182V61.8182ZM998.144 69.7902C1007.92 75.0358 1015.35 82.324 1020.47 91.6622L1022.22 90.7014C1016.91 81.0093 1009.19 73.449 999.09 68.0279L998.144 69.7902ZM1020.47 91.6689C1025.65 100.954 1028.25 111.691 1028.25 123.909H1030.25C1030.25 111.399 1027.58 100.318 1022.22 90.6947L1020.47 91.6689ZM1028.25 123.909C1028.25 136.125 1025.62 146.86 1020.38 156.145L1022.12 157.128C1027.55 147.503 1030.25 136.421 1030.25 123.909H1028.25ZM1020.38 156.145C1015.15 165.422 1007.57 172.652 997.61 177.84L998.534 179.614C1008.82 174.257 1016.69 166.76 1022.12 157.128L1020.38 156.145ZM997.608 177.842C987.723 183.022 975.709 185.636 961.526 185.636V187.636C975.95 187.636 988.3 184.978 998.536 179.613L997.608 177.842ZM961.526 185.636H914.708V187.636H961.526V185.636ZM915.708 186.636V155.091H913.708V186.636H915.708ZM914.708 156.091H955.163V154.091H914.708V156.091ZM955.163 156.091C962.845 156.091 969.263 154.771 974.359 152.065L973.421 150.299C968.699 152.805 962.632 154.091 955.163 154.091V156.091ZM974.363 152.063C979.496 149.308 983.344 145.501 985.868 140.643L984.094 139.721C981.769 144.196 978.223 147.722 973.417 150.301L974.363 152.063ZM985.866 140.647C988.437 135.757 989.708 130.169 989.708 123.909H987.708C987.708 129.892 986.495 135.152 984.096 139.717L985.866 140.647ZM989.708 123.909C989.708 117.592 988.438 112.029 985.861 107.252L984.101 108.202C986.494 112.638 987.708 117.863 987.708 123.909H989.708ZM985.868 107.266C983.342 102.404 979.488 98.653 974.346 96.019L973.434 97.7991C978.231 100.256 981.771 103.718 984.094 108.188L985.868 107.266ZM974.354 96.0235C969.199 93.3201 962.723 92 954.981 92V94C962.511 94 968.641 95.2859 973.426 97.7947L974.354 96.0235ZM954.981 92H928.435V94H954.981V92ZM927.435 93V247H929.435V93H927.435ZM928.435 246H889.072V248H928.435V246Z" fill="black" mask="url(#path-34-outside-1_251_2132)"/>
</g>
<defs>
<filter id="filter0_d_251_2132" x="348.091" y="58.2727" width="685.163" height="199.364" filterUnits="userSpaceOnUse" color-interpolation-filters="sRGB">
<feFlood flood-opacity="0" result="BackgroundImageFix"/>
<feColorMatrix in="SourceAlpha" type="matrix" values="0 0 0 0 0 0 0 0 0 0 0 0 0 0 0 0 0 0 127 0" result="hardAlpha"/>
<feOffset dy="4"/>
<feGaussianBlur stdDeviation="2"/>
<feComposite in2="hardAlpha" operator="out"/>
<feColorMatrix type="matrix" values="0 0 0 0 0 0 0 0 0 0 0 0 0 0 0 0 0 0 0.25 0"/>
<feBlend mode="normal" in2="BackgroundImageFix" result="effect1_dropShadow_251_2132"/>
<feBlend mode="normal" in="SourceGraphic" in2="effect1_dropShadow_251_2132" result="shape"/>
</filter>
</defs>
</svg>
