<svg width="38" height="40" viewBox="0 0 38 40" fill="none" xmlns="http://www.w3.org/2000/svg">
<g clip-path="url(#clip0_93_2027)">
<rect width="38" height="40" rx="19" fill="#55D252"/>
<path d="M20.4531 14.0938V31H17.5469V14.0938H20.4531ZM17.3281 9.60938C17.3281 9.14062 17.4688 8.74479 17.75 8.42188C18.0417 8.09896 18.4688 7.9375 19.0312 7.9375C19.5833 7.9375 20.0052 8.09896 20.2969 8.42188C20.599 8.74479 20.75 9.14062 20.75 9.60938C20.75 10.0573 20.599 10.4427 20.2969 10.7656C20.0052 11.0781 19.5833 11.2344 19.0312 11.2344C18.4688 11.2344 18.0417 11.0781 17.75 10.7656C17.4688 10.4427 17.3281 10.0573 17.3281 9.60938Z" fill="white"/>
</g>
<defs>
<clipPath id="clip0_93_2027">
<rect width="38" height="40" rx="19" fill="white"/>
</clipPath>
</defs>
</svg>
