<svg width="128" height="37" viewBox="0 0 128 37" fill="none" xmlns="http://www.w3.org/2000/svg">
<mask id="path-1-outside-1_84_2130" maskUnits="userSpaceOnUse" x="-2" y="-1" width="131" height="39" fill="black">
<rect fill="white" x="-2" y="-1" width="131" height="39"/>
<path d="M8.05114 36H0.142046L12.1932 1.09091H21.7045L33.7386 36H25.8295L17.0852 9.06818H16.8125L8.05114 36ZM7.55682 22.2784H26.2386V28.0398H7.55682V22.2784ZM55.121 11.1307C54.9846 9.75568 54.3994 8.6875 53.3653 7.92614C52.3312 7.16477 50.9278 6.78409 49.1551 6.78409C47.9505 6.78409 46.9335 6.95454 46.1039 7.29545C45.2744 7.625 44.638 8.08523 44.1948 8.67614C43.763 9.26705 43.5471 9.9375 43.5471 10.6875C43.5244 11.3125 43.6551 11.858 43.9391 12.3239C44.2346 12.7898 44.638 13.1932 45.1494 13.5341C45.6607 13.8636 46.2516 14.1534 46.9221 14.4034C47.5926 14.642 48.3085 14.8466 49.0698 15.017L52.2062 15.767C53.7289 16.108 55.1266 16.5625 56.3994 17.1307C57.6721 17.6989 58.7744 18.3977 59.7062 19.2273C60.638 20.0568 61.3596 21.0341 61.871 22.1591C62.3937 23.2841 62.6607 24.5739 62.6721 26.0284C62.6607 28.1648 62.1153 30.017 61.0357 31.5852C59.9676 33.142 58.4221 34.3523 56.3994 35.2159C54.388 36.0682 51.9619 36.4943 49.121 36.4943C46.3028 36.4943 43.8482 36.0625 41.7573 35.1989C39.6778 34.3352 38.0528 33.0568 36.8823 31.3636C35.7232 29.6591 35.1153 27.5511 35.0585 25.0398H42.2005C42.2801 26.2102 42.6153 27.1875 43.2062 27.9716C43.8085 28.7443 44.6096 29.3295 45.6096 29.7273C46.621 30.1136 47.763 30.3068 49.0357 30.3068C50.2857 30.3068 51.371 30.125 52.2914 29.7614C53.2232 29.3977 53.9448 28.892 54.4562 28.2443C54.9676 27.5966 55.2232 26.8523 55.2232 26.0114C55.2232 25.2273 54.9903 24.5682 54.5244 24.0341C54.0698 23.5 53.3994 23.0455 52.513 22.6705C51.638 22.2955 50.5641 21.9545 49.2914 21.6477L45.4903 20.6932C42.5471 19.9773 40.2232 18.858 38.5187 17.3352C36.8141 15.8125 35.9676 13.7614 35.9789 11.1818C35.9676 9.06818 36.5301 7.22159 37.6664 5.64205C38.8141 4.0625 40.388 2.82955 42.388 1.94318C44.388 1.05682 46.6607 0.613635 49.2062 0.613635C51.7971 0.613635 54.0585 1.05682 55.9903 1.94318C57.9335 2.82955 59.4448 4.0625 60.5244 5.64205C61.6039 7.22159 62.1607 9.05114 62.1948 11.1307H55.121ZM71.8968 36H63.9877L76.0388 1.09091H85.5502L97.5843 36H89.6752L80.9309 9.06818H80.6581L71.8968 36ZM71.4024 22.2784H90.0843V28.0398H71.4024V22.2784ZM100.826 36V1.09091H114.599C117.246 1.09091 119.502 1.59659 121.366 2.60795C123.229 3.60795 124.65 5 125.627 6.78409C126.616 8.55682 127.11 10.6023 127.11 12.9205C127.11 15.2386 126.61 17.2841 125.61 19.0568C124.61 20.8295 123.161 22.2102 121.263 23.1989C119.377 24.1875 117.093 24.6818 114.411 24.6818H105.633V18.767H113.218C114.638 18.767 115.809 18.5227 116.729 18.0341C117.661 17.5341 118.354 16.8466 118.809 15.9716C119.275 15.0852 119.508 14.0682 119.508 12.9205C119.508 11.7614 119.275 10.75 118.809 9.88636C118.354 9.01136 117.661 8.33523 116.729 7.85795C115.798 7.36932 114.616 7.125 113.184 7.125H108.207V36H100.826Z"/>
</mask>
<path d="M8.05114 36H0.142046L12.1932 1.09091H21.7045L33.7386 36H25.8295L17.0852 9.06818H16.8125L8.05114 36ZM7.55682 22.2784H26.2386V28.0398H7.55682V22.2784ZM55.121 11.1307C54.9846 9.75568 54.3994 8.6875 53.3653 7.92614C52.3312 7.16477 50.9278 6.78409 49.1551 6.78409C47.9505 6.78409 46.9335 6.95454 46.1039 7.29545C45.2744 7.625 44.638 8.08523 44.1948 8.67614C43.763 9.26705 43.5471 9.9375 43.5471 10.6875C43.5244 11.3125 43.6551 11.858 43.9391 12.3239C44.2346 12.7898 44.638 13.1932 45.1494 13.5341C45.6607 13.8636 46.2516 14.1534 46.9221 14.4034C47.5926 14.642 48.3085 14.8466 49.0698 15.017L52.2062 15.767C53.7289 16.108 55.1266 16.5625 56.3994 17.1307C57.6721 17.6989 58.7744 18.3977 59.7062 19.2273C60.638 20.0568 61.3596 21.0341 61.871 22.1591C62.3937 23.2841 62.6607 24.5739 62.6721 26.0284C62.6607 28.1648 62.1153 30.017 61.0357 31.5852C59.9676 33.142 58.4221 34.3523 56.3994 35.2159C54.388 36.0682 51.9619 36.4943 49.121 36.4943C46.3028 36.4943 43.8482 36.0625 41.7573 35.1989C39.6778 34.3352 38.0528 33.0568 36.8823 31.3636C35.7232 29.6591 35.1153 27.5511 35.0585 25.0398H42.2005C42.2801 26.2102 42.6153 27.1875 43.2062 27.9716C43.8085 28.7443 44.6096 29.3295 45.6096 29.7273C46.621 30.1136 47.763 30.3068 49.0357 30.3068C50.2857 30.3068 51.371 30.125 52.2914 29.7614C53.2232 29.3977 53.9448 28.892 54.4562 28.2443C54.9676 27.5966 55.2232 26.8523 55.2232 26.0114C55.2232 25.2273 54.9903 24.5682 54.5244 24.0341C54.0698 23.5 53.3994 23.0455 52.513 22.6705C51.638 22.2955 50.5641 21.9545 49.2914 21.6477L45.4903 20.6932C42.5471 19.9773 40.2232 18.858 38.5187 17.3352C36.8141 15.8125 35.9676 13.7614 35.9789 11.1818C35.9676 9.06818 36.5301 7.22159 37.6664 5.64205C38.8141 4.0625 40.388 2.82955 42.388 1.94318C44.388 1.05682 46.6607 0.613635 49.2062 0.613635C51.7971 0.613635 54.0585 1.05682 55.9903 1.94318C57.9335 2.82955 59.4448 4.0625 60.5244 5.64205C61.6039 7.22159 62.1607 9.05114 62.1948 11.1307H55.121ZM71.8968 36H63.9877L76.0388 1.09091H85.5502L97.5843 36H89.6752L80.9309 9.06818H80.6581L71.8968 36ZM71.4024 22.2784H90.0843V28.0398H71.4024V22.2784ZM100.826 36V1.09091H114.599C117.246 1.09091 119.502 1.59659 121.366 2.60795C123.229 3.60795 124.65 5 125.627 6.78409C126.616 8.55682 127.11 10.6023 127.11 12.9205C127.11 15.2386 126.61 17.2841 125.61 19.0568C124.61 20.8295 123.161 22.2102 121.263 23.1989C119.377 24.1875 117.093 24.6818 114.411 24.6818H105.633V18.767H113.218C114.638 18.767 115.809 18.5227 116.729 18.0341C117.661 17.5341 118.354 16.8466 118.809 15.9716C119.275 15.0852 119.508 14.0682 119.508 12.9205C119.508 11.7614 119.275 10.75 118.809 9.88636C118.354 9.01136 117.661 8.33523 116.729 7.85795C115.798 7.36932 114.616 7.125 113.184 7.125H108.207V36H100.826Z" fill="#FCFFFA"/>
<path d="M8.05114 36V37H8.7774L9.00208 36.3094L8.05114 36ZM0.142046 36L-0.803215 35.6737L-1.26108 37H0.142046V36ZM12.1932 1.09091V0.0909081H11.4805L11.2479 0.76459L12.1932 1.09091ZM21.7045 1.09091L22.6499 0.765003L22.4176 0.0909081H21.7045V1.09091ZM33.7386 36V37H35.1411L34.684 35.6741L33.7386 36ZM25.8295 36L24.8784 36.3088L25.1028 37H25.8295V36ZM17.0852 9.06818L18.0364 8.75937L17.8119 8.06818H17.0852V9.06818ZM16.8125 9.06818V8.06818H16.0862L15.8616 8.75882L16.8125 9.06818ZM7.55682 22.2784V21.2784H6.55682V22.2784H7.55682ZM26.2386 22.2784H27.2386V21.2784H26.2386V22.2784ZM26.2386 28.0398V29.0398H27.2386V28.0398H26.2386ZM7.55682 28.0398H6.55682V29.0398H7.55682V28.0398ZM8.05114 35H0.142046V37H8.05114V35ZM1.08731 36.3263L13.1384 1.41723L11.2479 0.76459L-0.803215 35.6737L1.08731 36.3263ZM12.1932 2.09091H21.7045V0.0909081H12.1932V2.09091ZM20.7591 1.41681L32.7932 36.3259L34.684 35.6741L22.6499 0.765003L20.7591 1.41681ZM33.7386 35H25.8295V37H33.7386V35ZM26.7807 35.6912L18.0364 8.75937L16.1341 9.37699L24.8784 36.3088L26.7807 35.6912ZM17.0852 8.06818H16.8125V10.0682H17.0852V8.06818ZM15.8616 8.75882L7.10019 35.6906L9.00208 36.3094L17.7634 9.37754L15.8616 8.75882ZM7.55682 23.2784H26.2386V21.2784H7.55682V23.2784ZM25.2386 22.2784V28.0398H27.2386V22.2784H25.2386ZM26.2386 27.0398H7.55682V29.0398H26.2386V27.0398ZM8.55682 28.0398V22.2784H6.55682V28.0398H8.55682ZM55.121 11.1307L54.1258 11.2294L54.2152 12.1307H55.121V11.1307ZM46.1039 7.29545L46.4731 8.22487L46.484 8.22039L46.1039 7.29545ZM44.1948 8.67614L43.3948 8.07609L43.3874 8.08612L44.1948 8.67614ZM43.5471 10.6875L44.5464 10.7238L44.5471 10.7057V10.6875H43.5471ZM43.9391 12.3239L43.0854 12.8445L43.0899 12.852L43.0946 12.8594L43.9391 12.3239ZM45.1494 13.5341L44.5947 14.3661L44.6011 14.3705L44.6077 14.3747L45.1494 13.5341ZM46.9221 14.4034L46.5727 15.3404L46.5797 15.343L46.5868 15.3455L46.9221 14.4034ZM49.0698 15.017L49.3024 14.0445L49.2954 14.0428L49.2883 14.0412L49.0698 15.017ZM52.2062 15.767L51.9736 16.7396L51.9807 16.7413L51.9877 16.7429L52.2062 15.767ZM56.3994 17.1307L55.9917 18.0438L55.9917 18.0438L56.3994 17.1307ZM59.7062 19.2273L60.3711 18.4804L60.3711 18.4804L59.7062 19.2273ZM61.871 22.1591L60.9606 22.5729L60.9641 22.5805L61.871 22.1591ZM62.6721 26.0284L63.6722 26.0337L63.6721 26.0206L62.6721 26.0284ZM61.0357 31.5852L60.212 31.0182L60.2112 31.0195L61.0357 31.5852ZM56.3994 35.2159L56.7895 36.1367L56.792 36.1356L56.3994 35.2159ZM41.7573 35.1989L41.3738 36.1224L41.3756 36.1231L41.7573 35.1989ZM36.8823 31.3636L36.0554 31.926L36.0597 31.9323L36.8823 31.3636ZM35.0585 25.0398V24.0398H34.0356L34.0587 25.0624L35.0585 25.0398ZM42.2005 25.0398L43.1982 24.972L43.1349 24.0398H42.2005V25.0398ZM43.2062 27.9716L42.4076 28.5734L42.4125 28.5799L42.4175 28.5863L43.2062 27.9716ZM45.6096 29.7273L45.24 30.6566L45.2527 30.6614L45.6096 29.7273ZM52.2914 29.7614L51.9279 28.8298L51.924 28.8313L52.2914 29.7614ZM54.4562 28.2443L55.2411 28.864L55.2411 28.864L54.4562 28.2443ZM54.5244 24.0341L53.7628 24.6823L53.7708 24.6915L54.5244 24.0341ZM52.513 22.6705L52.1191 23.5896L52.1234 23.5914L52.513 22.6705ZM49.2914 21.6477L49.0479 22.6177L49.0571 22.6199L49.2914 21.6477ZM45.4903 20.6932L45.7339 19.7233L45.7266 19.7215L45.4903 20.6932ZM38.5187 17.3352L37.8525 18.081L37.8525 18.081L38.5187 17.3352ZM35.9789 11.1818L36.979 11.1862L36.9789 11.1764L35.9789 11.1818ZM37.6664 5.64205L36.8574 5.05421L36.8547 5.05805L37.6664 5.64205ZM55.9903 1.94318L55.5733 2.85208L55.5753 2.853L55.9903 1.94318ZM60.5244 5.64205L59.6988 6.2063L59.6988 6.2063L60.5244 5.64205ZM62.1948 11.1307V12.1307H63.2114L63.1947 11.1143L62.1948 11.1307ZM56.1161 11.032C55.9542 9.39921 55.2392 8.06399 53.9582 7.12086L52.7724 8.73141C53.5596 9.31101 54.0151 10.1121 54.1258 11.2294L56.1161 11.032ZM53.9582 7.12086C52.6978 6.19287 51.0617 5.78409 49.1551 5.78409V7.78409C50.7939 7.78409 51.9646 8.13667 52.7724 8.73141L53.9582 7.12086ZM49.1551 5.78409C47.8623 5.78409 46.7076 5.96621 45.7238 6.37051L46.484 8.22039C47.1593 7.94288 48.0387 7.78409 49.1551 7.78409V5.78409ZM45.7347 6.3661C44.7698 6.74942 43.9696 7.30979 43.3948 8.07613L44.9948 9.27614C45.3064 8.86066 45.7789 8.50058 46.4731 8.22481L45.7347 6.3661ZM43.3874 8.08612C42.8272 8.85279 42.5471 9.73101 42.5471 10.6875H44.5471C44.5471 10.144 44.6988 9.6813 45.0022 9.26615L43.3874 8.08612ZM42.5478 10.6512C42.519 11.4426 42.6849 12.1877 43.0854 12.8445L44.7929 11.8033C44.6252 11.5282 44.5298 11.1824 44.5464 10.7238L42.5478 10.6512ZM43.0946 12.8594C43.473 13.4561 43.9804 13.9566 44.5947 14.3661L45.7041 12.702C45.2957 12.4298 44.9962 12.1234 44.7837 11.7883L43.0946 12.8594ZM44.6077 14.3747C45.189 14.7493 45.8463 15.0695 46.5727 15.3404L47.2715 13.4664C46.657 13.2373 46.1325 12.978 45.6911 12.6935L44.6077 14.3747ZM46.5868 15.3455C47.2989 15.599 48.0541 15.8144 48.8514 15.9929L49.2883 14.0412C48.5628 13.8788 47.8862 13.6851 47.2574 13.4613L46.5868 15.3455ZM48.8373 15.9896L51.9736 16.7396L52.4388 14.7945L49.3024 14.0445L48.8373 15.9896ZM51.9877 16.7429C53.4531 17.0709 54.7865 17.5058 55.9917 18.0438L56.807 16.2175C55.4668 15.6192 54.0048 15.145 52.4247 14.7912L51.9877 16.7429ZM55.9917 18.0438C57.1815 18.575 58.1946 19.2204 59.0413 19.9742L60.3711 18.4804C59.3542 17.575 58.1627 16.8227 56.807 16.2175L55.9917 18.0438ZM59.0413 19.9742C59.87 20.7119 60.5075 21.5761 60.9606 22.5729L62.7813 21.7453C62.2117 20.4921 61.4061 19.4017 60.3711 18.4804L59.0413 19.9742ZM60.9641 22.5805C61.4171 23.5554 61.6617 24.7002 61.6721 26.0362L63.6721 26.0206C63.6598 24.4476 63.3703 23.0128 62.7779 21.7377L60.9641 22.5805ZM61.6721 26.0231C61.6617 27.9842 61.1642 29.6351 60.212 31.0182L61.8594 32.1523C63.0664 30.399 63.6598 28.3453 63.6721 26.0337L61.6721 26.0231ZM60.2112 31.0195C59.2672 32.3953 57.8841 33.4946 56.0067 34.2962L56.792 36.1356C58.9601 35.2099 60.668 33.8888 61.8603 32.151L60.2112 31.0195ZM56.0092 34.2952C54.1523 35.082 51.8663 35.4943 49.121 35.4943V37.4943C52.0575 37.4943 54.6237 37.0544 56.7895 36.1367L56.0092 34.2952ZM49.121 35.4943C46.4027 35.4943 44.0832 35.0776 42.1391 34.2746L41.3756 36.1231C43.6133 37.0474 46.2029 37.4943 49.121 37.4943V35.4943ZM42.1409 34.2753C40.2214 33.4782 38.7559 32.3154 37.7049 30.795L36.0597 31.9323C37.3496 33.7982 39.1342 35.1923 41.3738 36.1224L42.1409 34.2753ZM37.7093 30.8013C36.6802 29.2881 36.1116 27.3782 36.0582 25.0172L34.0587 25.0624C34.1189 27.7241 34.7662 30.0301 36.0554 31.9259L37.7093 30.8013ZM35.0585 26.0398H42.2005V24.0398H35.0585V26.0398ZM41.2028 25.1076C41.2929 26.4333 41.6788 27.6064 42.4076 28.5734L44.0048 27.3697C43.5518 26.7686 43.2672 25.9871 43.1982 24.972L41.2028 25.1076ZM42.4175 28.5863C43.1396 29.5128 44.0916 30.1997 45.24 30.6565L45.9792 28.7981C45.1276 28.4594 44.4773 27.9758 43.9949 27.3568L42.4175 28.5863ZM45.2527 30.6614C46.3961 31.0982 47.662 31.3068 49.0357 31.3068V29.3068C47.864 29.3068 46.8458 29.129 45.9665 28.7931L45.2527 30.6614ZM49.0357 31.3068C50.3798 31.3068 51.5951 31.1117 52.6588 30.6914L51.924 28.8313C51.1468 29.1383 50.1917 29.3068 49.0357 29.3068V31.3068ZM52.655 30.6929C53.7174 30.2783 54.5983 29.6782 55.2411 28.864L53.6713 27.6247C53.2914 28.1059 52.7291 28.5171 51.9279 28.8298L52.655 30.6929ZM55.2411 28.864C55.8946 28.0362 56.2232 27.0725 56.2232 26.0114H54.2232C54.2232 26.632 54.0405 27.157 53.6713 27.6247L55.2411 28.864ZM56.2232 26.0114C56.2232 25.0132 55.92 24.1127 55.2779 23.3767L53.7708 24.6915C54.0606 25.0236 54.2232 25.4414 54.2232 26.0114H56.2232ZM55.2859 23.386C54.6999 22.6974 53.882 22.1638 52.9027 21.7495L52.1234 23.5914C52.9168 23.9271 53.4397 24.3026 53.7628 24.6822L55.2859 23.386ZM52.9069 21.7513C51.9652 21.3477 50.8344 20.991 49.5258 20.6756L49.0571 22.6199C50.2939 22.918 51.3108 23.2432 52.1191 23.5896L52.9069 21.7513ZM49.535 20.6778L45.7338 19.7233L45.2467 21.6631L49.0479 22.6176L49.535 20.6778ZM45.7266 19.7215C42.8931 19.0323 40.7335 17.9729 39.1849 16.5895L37.8525 18.081C39.7129 19.743 42.2011 20.9223 45.2539 21.6648L45.7266 19.7215ZM39.1849 16.5895C37.7226 15.2832 36.9686 13.5204 36.9789 11.1862L34.9789 11.1774C34.9665 14.0023 35.9057 16.3418 37.8525 18.081L39.1849 16.5895ZM36.9789 11.1764C36.9686 9.25498 37.4761 7.61898 38.4782 6.22604L36.8547 5.05805C35.5841 6.8242 34.9665 8.88138 34.9789 11.1872L36.9789 11.1764ZM38.4754 6.22987C39.5076 4.80935 40.9344 3.68122 42.7932 2.85742L41.9828 1.02894C39.8417 1.97787 38.1207 3.31565 36.8574 5.05422L38.4754 6.22987ZM42.7932 2.85742C44.6464 2.03611 46.7777 1.61364 49.2062 1.61364V-0.386365C46.5438 -0.386365 44.1296 0.0775287 41.9828 1.02894L42.7932 2.85742ZM49.2062 1.61364C51.684 1.61364 53.7977 2.0374 55.5733 2.85208L56.4073 1.03429C54.3192 0.0762304 51.9102 -0.386365 49.2062 -0.386365V1.61364ZM55.5753 2.853C57.3725 3.67277 58.7337 4.79422 59.6988 6.2063L61.35 5.07779C60.156 3.33078 58.4945 1.98632 56.4053 1.03336L55.5753 2.853ZM59.6988 6.2063C60.6582 7.61013 61.1638 9.24548 61.195 11.1471L63.1947 11.1143C63.1577 8.85679 62.5496 6.83305 61.35 5.07779L59.6988 6.2063ZM62.1948 10.1307H55.121V12.1307H62.1948V10.1307ZM71.8968 36V37H72.623L72.8477 36.3094L71.8968 36ZM63.9877 36L63.0424 35.6737L62.5845 37H63.9877V36ZM76.0388 1.09091V0.0909081H75.3261L75.0935 0.76459L76.0388 1.09091ZM85.5502 1.09091L86.4956 0.765003L86.2632 0.0909081H85.5502V1.09091ZM97.5843 36V37H98.9867L98.5297 35.6741L97.5843 36ZM89.6752 36L88.7241 36.3088L88.9485 37H89.6752V36ZM80.9309 9.06818L81.882 8.75937L81.6576 8.06818H80.9309V9.06818ZM80.6581 9.06818V8.06818H79.9319L79.7072 8.75882L80.6581 9.06818ZM71.4024 22.2784V21.2784H70.4024V22.2784H71.4024ZM90.0843 22.2784H91.0843V21.2784H90.0843V22.2784ZM90.0843 28.0398V29.0398H91.0843V28.0398H90.0843ZM71.4024 28.0398H70.4024V29.0398H71.4024V28.0398ZM71.8968 35H63.9877V37H71.8968V35ZM64.9329 36.3263L76.9841 1.41723L75.0935 0.76459L63.0424 35.6737L64.9329 36.3263ZM76.0388 2.09091H85.5502V0.0909081H76.0388V2.09091ZM84.6048 1.41681L96.6389 36.3259L98.5297 35.6741L86.4956 0.765003L84.6048 1.41681ZM97.5843 35H89.6752V37H97.5843V35ZM90.6263 35.6912L81.882 8.75937L79.9797 9.37699L88.7241 36.3088L90.6263 35.6912ZM80.9309 8.06818H80.6581V10.0682H80.9309V8.06818ZM79.7072 8.75882L70.9458 35.6906L72.8477 36.3094L81.6091 9.37754L79.7072 8.75882ZM71.4024 23.2784H90.0843V21.2784H71.4024V23.2784ZM89.0843 22.2784V28.0398H91.0843V22.2784H89.0843ZM90.0843 27.0398H71.4024V29.0398H90.0843V27.0398ZM72.4024 28.0398V22.2784H70.4024V28.0398H72.4024ZM100.826 36H99.826V37H100.826V36ZM100.826 1.09091V0.0909081H99.826V1.09091H100.826ZM121.366 2.60795L120.889 3.48688L120.893 3.48911L121.366 2.60795ZM125.627 6.78409L124.75 7.26452L124.754 7.27116L125.627 6.78409ZM121.263 23.1989L120.801 22.312L120.799 22.3131L121.263 23.1989ZM105.633 24.6818H104.633V25.6818H105.633V24.6818ZM105.633 18.767V17.767H104.633V18.767H105.633ZM116.729 18.0341L117.198 18.9174L117.202 18.9153L116.729 18.0341ZM118.809 15.9716L117.924 15.5063L117.922 15.5106L118.809 15.9716ZM118.809 9.88636L117.922 10.3474L117.925 10.3543L117.929 10.3612L118.809 9.88636ZM116.729 7.85795L116.265 8.74362L116.274 8.748L116.729 7.85795ZM108.207 7.125V6.125H107.207V7.125H108.207ZM108.207 36V37H109.207V36H108.207ZM101.826 36V1.09091H99.826V36H101.826ZM100.826 2.09091H114.599V0.0909081H100.826V2.09091ZM114.599 2.09091C117.121 2.09091 119.204 2.57237 120.889 3.48687L121.843 1.72904C119.801 0.620815 117.372 0.0909081 114.599 0.0909081V2.09091ZM120.893 3.48911C122.593 4.40135 123.87 5.65731 124.75 7.26451L126.504 6.30367C125.43 4.34268 123.866 2.81456 121.839 1.72679L120.893 3.48911ZM124.754 7.27116C125.648 8.87492 126.11 10.7482 126.11 12.9205H128.11C128.11 10.4563 127.583 8.23871 126.5 6.29702L124.754 7.27116ZM126.11 12.9205C126.11 15.0908 125.643 16.9625 124.739 18.5655L126.481 19.5481C127.577 17.6057 128.11 15.3865 128.11 12.9205H126.11ZM124.739 18.5655C123.839 20.1607 122.537 21.408 120.801 22.312L121.725 24.0857C123.786 23.0125 125.381 21.4984 126.481 19.5481L124.739 18.5655ZM120.799 22.3131C119.088 23.2097 116.972 23.6818 114.411 23.6818V25.6818C117.214 25.6818 119.666 25.1653 121.728 24.0846L120.799 22.3131ZM114.411 23.6818H105.633V25.6818H114.411V23.6818ZM106.633 24.6818V18.767H104.633V24.6818H106.633ZM105.633 19.767H113.218V17.767H105.633V19.767ZM113.218 19.767C114.745 19.767 116.091 19.5054 117.198 18.9173L116.26 17.1508C115.527 17.5401 114.532 17.767 113.218 17.767V19.767ZM117.202 18.9153C118.298 18.3274 119.142 17.4993 119.696 16.4326L117.922 15.5106C117.567 16.1939 117.025 16.7408 116.257 17.1529L117.202 18.9153ZM119.694 16.4369C120.246 15.3873 120.508 14.2064 120.508 12.9205H118.508C118.508 13.9299 118.304 14.7832 117.924 15.5063L119.694 16.4369ZM120.508 12.9205C120.508 11.6256 120.247 10.4454 119.689 9.41157L117.929 10.3612C118.303 11.0546 118.508 11.8971 118.508 12.9205H120.508ZM119.696 9.42537C119.14 8.35429 118.29 7.5337 117.185 6.96791L116.274 8.748C117.033 9.13675 117.569 9.66844 117.922 10.3474L119.696 9.42537ZM117.194 6.97233C116.076 6.38641 114.722 6.125 113.184 6.125V8.125C114.51 8.125 115.519 8.35222 116.265 8.74357L117.194 6.97233ZM113.184 6.125H108.207V8.125H113.184V6.125ZM107.207 7.125V36H109.207V7.125H107.207ZM108.207 35H100.826V37H108.207V35Z" fill="black" mask="url(#path-1-outside-1_84_2130)"/>
</svg>
